<svg xmlns="http://www.w3.org/2000/svg" xmlns:xlink="http://www.w3.org/1999/xlink" width="850" height="2171"><rect width="850" height="2171" rx="0" ry="0" class="a"/><svg height="2171" viewBox="0 0 85 217.1" width="850" xmlns="http://www.w3.org/2000/svg" xmlns:xlink="http://www.w3.org/1999/xlink"><style>.a{fill:#282d35}.c,.d{fill:#b9c0cb;white-space:pre}.d{fill:#a8cc8c}.e{fill:#dbab79}.e,.h,.i,.j{white-space:pre}.h{fill:#71bef2;font-weight:700}.i,.j{fill:#6f7783}.j{fill:#d290e3}.j,.k,.l{font-weight:700}.k{fill:#6f7783;white-space:pre}.l{fill:#dbab79}.l,.m,.n{white-space:pre}.m{fill:#66c2cd;font-weight:700}.n{fill:#73bef3}.n,.o,.p{font-weight:700}.o{fill:#a8cc8c;white-space:pre}.p{fill:#b9c0cb}.p,.q,.r,.s,.t{white-space:pre}.q{fill:#d290e4;font-weight:700}.r,.s,.t{fill:#66c2cd}.s,.t{fill:#d290e4}.t{fill:#e88388}</style><g font-family="Monaco,Consolas,Menlo,'Bitstream Vera Sans Mono','Powerline Symbols',monospace" font-size="1.67"><defs><symbol id="1"><text y="1.67" class="c">$</text><text x="2.004" y="1.67" class="c">jj-old</text><text x="9.018" y="1.67" class="c">log</text></symbol><symbol id="2"><text y="1.67" class="c">│</text><text x="3.006" y="1.67" class="c">third</text></symbol><symbol id="3"><text y="1.67" class="c">│</text><text x="3.006" y="1.67" class="c">second</text></symbol><symbol id="4"><text y="1.67" class="c">│</text><text x="3.006" y="1.67" class="c">first</text></symbol><symbol id="5"><text x="3.006" y="1.67" class="d">(empty)</text><text x="11.022" y="1.67" class="c">(no</text><text x="15.03" y="1.67" class="c">description</text><text x="27.054" y="1.67" class="c">set)</text></symbol><symbol id="6"><text y="1.67" class="e">Modified</text><text x="9.018" y="1.67" class="e">regular</text><text x="17.034" y="1.67" class="e">file</text><text x="22.044" y="1.67" class="e">file:</text></symbol><symbol id="7"><text y="1.67" class="c">Rebased</text><text x="8.016" y="1.67" class="c">2</text><text x="10.02" y="1.67" class="c">commits</text></symbol><symbol id="8"><text y="1.67" class="c">Added</text><text x="6.012" y="1.67" class="c">0</text><text x="8.016" y="1.67" class="c">files,</text><text x="15.03" y="1.67" class="c">modified</text><text x="24.048" y="1.67" class="c">1</text><text x="26.052" y="1.67" class="c">files,</text><text x="33.066" y="1.67" class="c">removed</text><text x="41.082" y="1.67" class="c">0</text><text x="43.086" y="1.67" class="c">files</text></symbol><symbol id="a"><path fill="transparent" d="M0 0h85v101H0z"/></symbol><symbol id="b"><path fill="#6f7683" d="M0 0h1.102v2.171H0z"/></symbol></defs><path class="a" d="M0 0h85v217.1H0z"/><svg width="85"><svg><use xlink:href="#a"/><use xlink:href="#b" x="-.004" y="195.365"/><text y="1.67" class="c">Initialized</text><text x="12.024" y="1.67" class="c">repo</text><text x="17.034" y="1.67" class="c">in</text><text x="20.04" y="1.67" class="c">&quot;.&quot;</text><text y="3.841" class="c">Working</text><text x="8.016" y="3.841" class="c">copy</text><text x="13.026" y="3.841" class="c">now</text><text x="17.034" y="3.841" class="c">at:</text><text x="21.042" y="3.841" class="h">7</text><text x="22.044" y="3.841" class="i">d38f1</text><text x="28.056" y="3.841" class="c">(no</text><text x="32.064" y="3.841" class="c">description</text><text x="44.088" y="3.841" class="c">set)</text><text y="6.012" class="c">Working</text><text x="8.016" y="6.012" class="c">copy</text><text x="13.026" y="6.012" class="c">now</text><text x="17.034" y="6.012" class="c">at:</text><text x="21.042" y="6.012" class="h">b4</text><text x="23.046" y="6.012" class="i">78bb</text><text x="28.056" y="6.012" class="c">(no</text><text x="32.064" y="6.012" class="c">description</text><text x="44.088" y="6.012" class="c">set)</text><text y="8.183" class="c">Working</text><text x="8.016" y="8.183" class="c">copy</text><text x="13.026" y="8.183" class="c">now</text><text x="17.034" y="8.183" class="c">at:</text><text x="21.042" y="8.183" class="h">1</text><text x="22.044" y="8.183" class="i">469ae</text><text x="28.056" y="8.183" class="c">(no</text><text x="32.064" y="8.183" class="c">description</text><text x="44.088" y="8.183" class="c">set)</text><text y="12.525" class="d">#</text><text x="2.004" y="12.525" class="d">We</text><text x="5.01" y="12.525" class="d">are</text><text x="9.018" y="12.525" class="d">in</text><text x="12.024" y="12.525" class="d">a</text><text x="14.028" y="12.525" class="d">repo</text><text x="19.038" y="12.525" class="d">with</text><text x="24.048" y="12.525" class="d">three</text><text x="30.06" y="12.525" class="d">commits,</text><text x="39.078" y="12.525" class="d">all</text><text y="14.696" class="d">#</text><text x="2.004" y="14.696" class="d">editing</text><text x="10.02" y="14.696" class="d">the</text><text x="14.028" y="14.696" class="d">same</text><text x="19.038" y="14.696" class="d">line:</text><use xlink:href="#1" y="17.368"/><text y="21.209" class="c">@</text><text x="3.006" y="21.209" class="j">NL</text><text x="5.01" y="21.209" class="k">SNMX</text><text x="10.02" y="21.209" class="l">ilyagr@</text><text x="18.036" y="21.209" class="m">now</text><text x="22.044" y="21.209" class="n">1</text><text x="23.046" y="21.209" class="k">469ae</text><text y="23.38" class="c">│</text><text x="3.006" y="23.38" class="o">(empty)</text><text x="11.022" y="23.38" class="p">(no</text><text x="15.03" y="23.38" class="p">description</text><text x="27.054" y="23.38" class="p">set)</text><text y="25.551" class="c">●</text><text x="3.006" y="25.551" class="q">L</text><text x="4.008" y="25.551" class="i">LMTPY</text><text x="10.02" y="25.551" class="e">ilyagr@</text><text x="18.036" y="25.551" class="r">now</text><text x="22.044" y="25.551" class="s">third</text><text x="28.056" y="25.551" class="h">b47b</text><text x="32.064" y="25.551" class="i">2f</text><use xlink:href="#2" y="26.052"/><text y="29.893" class="c">●</text><text x="3.006" y="29.893" class="q">V</text><text x="4.008" y="29.893" class="i">SYKRZ</text><text x="10.02" y="29.893" class="e">ilyagr@</text><text x="18.036" y="29.893" class="r">now</text><text x="22.044" y="29.893" class="s">second</text><text x="29.058" y="29.893" class="h">6</text><text x="30.06" y="29.893" class="i">28320</text><use xlink:href="#3" y="30.394"/><text y="34.235" class="c">●</text><text x="3.006" y="34.235" class="q">NQ</text><text x="5.01" y="34.235" class="i">ZVOU</text><text x="10.02" y="34.235" class="e">ilyagr@</text><text x="18.036" y="34.235" class="r">now</text><text x="22.044" y="34.235" class="s">first</text><text x="28.056" y="34.235" class="h">bb</text><text x="30.06" y="34.235" class="i">d56d</text><use xlink:href="#4" y="34.736"/><text y="38.577" class="c">●</text><text x="3.006" y="38.577" class="q">Z</text><text x="4.008" y="38.577" class="i">ZZZZZ</text><text x="10.02" y="38.577" class="e">@</text><text x="12.024" y="38.577" class="r">53</text><text x="15.03" y="38.577" class="r">years</text><text x="21.042" y="38.577" class="r">ago</text><text x="25.05" y="38.577" class="h">0</text><text x="26.052" y="38.577" class="i">00000</text><use xlink:href="#5" y="39.078"/><text y="42.919" class="c">$</text><text x="2.004" y="42.919" class="c">jj</text><text x="5.01" y="42.919" class="c">diff</text><text x="10.02" y="42.919" class="c">-r</text><text x="13.026" y="42.919" class="c">first</text><text y="45.09" class="e">Added</text><text x="6.012" y="45.09" class="e">regular</text><text x="14.028" y="45.09" class="e">file</text><text x="19.038" y="45.09" class="e">file:</text><text x="8.016" y="47.261" class="d">1</text><text x="9.018" y="47.261" class="c">:</text><text x="11.022" y="47.261" class="d">first</text><text y="49.432" class="c">$</text><text x="2.004" y="49.432" class="c">jj</text><text x="5.01" y="49.432" class="c">diff</text><text x="10.02" y="49.432" class="c">-r</text><text x="13.026" y="49.432" class="c">second</text><use xlink:href="#6" y="49.933"/><text x="3.006" y="53.774" class="t">1</text><text x="8.016" y="53.774" class="d">1</text><text x="9.018" y="53.774" class="c">:</text><text x="11.022" y="53.774" class="t">first</text><text x="16.032" y="53.774" class="d">second</text><text y="55.945" class="c">$</text><text x="2.004" y="55.945" class="c">jj</text><text x="5.01" y="55.945" class="c">diff</text><text x="10.02" y="55.945" class="c">-r</text><text x="13.026" y="55.945" class="c">third</text><use xlink:href="#6" y="56.446"/><text x="3.006" y="60.287" class="t">1</text><text x="8.016" y="60.287" class="d">1</text><text x="9.018" y="60.287" class="c">:</text><text x="11.022" y="60.287" class="t">second</text><text x="17.034" y="60.287" class="d">third</text><text y="64.629" class="d">#</text><text x="2.004" y="64.629" class="d">Let&apos;s</text><text x="8.016" y="64.629" class="d">reorder</text><text x="16.032" y="64.629" class="d">the</text><text x="20.04" y="64.629" class="d">second</text><text x="27.054" y="64.629" class="d">and</text><text x="31.062" y="64.629" class="d">third</text><text x="37.074" y="64.629" class="d">commits:</text><text y="68.971" class="c">$</text><text x="2.004" y="68.971" class="c">jj</text><text x="5.01" y="68.971" class="c">rebase</text><text x="12.024" y="68.971" class="c">-s</text><text x="15.03" y="68.971" class="c">third</text><text x="21.042" y="68.971" class="c">-d</text><text x="24.048" y="68.971" class="c">first</text><use xlink:href="#7" y="69.472"/><text y="73.313" class="c">Working</text><text x="8.016" y="73.313" class="c">copy</text><text x="13.026" y="73.313" class="c">now</text><text x="17.034" y="73.313" class="c">at:</text><text x="21.042" y="73.313" class="h">c2</text><text x="23.046" y="73.313" class="i">65d7</text><text x="28.056" y="73.313" class="c">(no</text><text x="32.064" y="73.313" class="c">description</text><text x="44.088" y="73.313" class="c">set)</text><use xlink:href="#8" y="73.814"/><text y="77.655" class="c">$</text><text x="2.004" y="77.655" class="c">jj</text><text x="5.01" y="77.655" class="c">rebase</text><text x="12.024" y="77.655" class="c">-s</text><text x="15.03" y="77.655" class="c">second</text><text x="22.044" y="77.655" class="c">-d</text><text x="25.05" y="77.655" class="c">third</text><text y="79.826" class="c">Rebased</text><text x="8.016" y="79.826" class="c">1</text><text x="10.02" y="79.826" class="c">commits</text><text y="81.997" class="c">$</text><text x="2.004" y="81.997" class="c">jj</text><text x="5.01" y="81.997" class="c">log</text><text y="84.168" class="c">◉</text><text x="3.006" y="84.168" class="q">V</text><text x="4.008" y="84.168" class="i">SYKRZ</text><text x="10.02" y="84.168" class="e">ilyagr@</text><text x="18.036" y="84.168" class="r">now</text><text x="22.044" y="84.168" class="s">second</text><text x="29.058" y="84.168" class="h">4</text><text x="30.06" y="84.168" class="i">88b68</text><use xlink:href="#3" y="84.669"/><text y="88.51" class="c">│</text><text x="2.004" y="88.51" class="c">@</text><text x="5.01" y="88.51" class="j">NL</text><text x="7.014" y="88.51" class="k">SNMX</text><text x="12.024" y="88.51" class="l">ilyagr@</text><text x="20.04" y="88.51" class="m">now</text><text x="24.048" y="88.51" class="n">c2</text><text x="26.052" y="88.51" class="k">65d7</text><text x="31.062" y="88.51" style="white-space:pre" fill="#e88388" font-weight="700">conflict</text><text y="90.681" class="c">├─╯</text><text x="5.01" y="90.681" class="o">(empty)</text><text x="13.026" y="90.681" class="p">(no</text><text x="17.034" y="90.681" class="p">description</text><text x="29.058" y="90.681" class="p">set)</text><text y="92.852" class="c">◉</text><text x="3.006" y="92.852" class="q">L</text><text x="4.008" y="92.852" class="i">LMTPY</text><text x="10.02" y="92.852" class="e">ilyagr@</text><text x="18.036" y="92.852" class="r">now</text><text x="22.044" y="92.852" class="s">third</text><text x="28.056" y="92.852" class="h">8</text><text x="29.058" y="92.852" class="i">fddae</text><text x="35.07" y="92.852" class="t">conflict</text><use xlink:href="#2" y="93.353"/><text y="97.194" class="c">◉</text><text x="3.006" y="97.194" class="q">NQ</text><text x="5.01" y="97.194" class="i">ZVOU</text><text x="10.02" y="97.194" class="e">ilyagr@</text><text x="18.036" y="97.194" class="r">now</text><text x="22.044" y="97.194" class="s">first</text><text x="28.056" y="97.194" class="h">bb</text><text x="30.06" y="97.194" class="i">d56d</text><use xlink:href="#4" y="97.695"/><text y="101.536" class="c">◉</text><text x="3.006" y="101.536" class="q">Z</text><text x="4.008" y="101.536" class="i">ZZZZZ</text><text x="10.02" y="101.536" class="e">@</text><text x="12.024" y="101.536" class="r">53</text><text x="15.03" y="101.536" class="r">years</text><text x="21.042" y="101.536" class="r">ago</text><text x="25.05" y="101.536" class="h">0</text><text x="26.052" y="101.536" class="i">00000</text><use xlink:href="#5" y="102.037"/><text y="108.049" class="d">#</text><text x="2.004" y="108.049" class="d">The</text><text x="6.012" y="108.049" class="d">commit</text><text x="13.026" y="108.049" class="d">labeled</text><text x="21.042" y="108.049" class="d">&quot;third&quot;</text><text x="29.058" y="108.049" class="d">has</text><text x="33.066" y="108.049" class="d">a</text><text x="35.07" y="108.049" class="d">conflict,</text><text y="110.22" class="d">#</text><text x="2.004" y="110.22" class="d">as</text><text x="5.01" y="110.22" class="d">expected.</text><text x="15.03" y="110.22" class="d">What&apos;s</text><text x="22.044" y="110.22" class="d">more</text><text x="27.054" y="110.22" class="d">interesting</text><text x="39.078" y="110.22" class="d">is</text><text y="112.391" class="d">#</text><text x="2.004" y="112.391" class="d">that</text><text x="7.014" y="112.391" class="d">the</text><text x="11.022" y="112.391" class="d">top</text><text x="15.03" y="112.391" class="d">commit</text><text x="22.044" y="112.391" class="d">has</text><text x="26.052" y="112.391" class="d">no</text><text x="29.058" y="112.391" class="d">conflict!</text><text x="39.078" y="112.391" class="d">That&apos;s</text><text y="114.562" class="d">#</text><text x="2.004" y="114.562" class="d">because</text><text x="10.02" y="114.562" class="d">it</text><text x="13.026" y="114.562" class="d">has</text><text x="17.034" y="114.562" class="d">the</text><text x="21.042" y="114.562" class="d">changes</text><text x="29.058" y="114.562" class="d">from</text><text x="34.068" y="114.562" class="d">all</text><text x="38.076" y="114.562" class="d">three</text><text y="116.733" class="d">#</text><text x="2.004" y="116.733" class="d">commits</text><text x="10.02" y="116.733" class="d">applied</text><text x="18.036" y="116.733" class="d">to</text><text x="21.042" y="116.733" class="d">it.</text><text y="123.246" class="d">#</text><text x="2.004" y="123.246" class="d">Let&apos;s</text><text x="8.016" y="123.246" class="d">verify</text><text x="15.03" y="123.246" class="d">that</text><text x="20.04" y="123.246" class="d">by</text><text x="23.046" y="123.246" class="d">looking</text><text x="31.062" y="123.246" class="d">at</text><text x="34.068" y="123.246" class="d">its</text><text x="38.076" y="123.246" class="d">contents:</text><text y="127.588" class="c">$</text><text x="2.004" y="127.588" class="c">jj</text><text x="5.01" y="127.588" class="c">co</text><text x="8.016" y="127.588" class="c">second</text><text y="129.759" class="c">Working</text><text x="8.016" y="129.759" class="c">copy</text><text x="13.026" y="129.759" class="c">now</text><text x="17.034" y="129.759" class="c">at:</text><text x="21.042" y="129.759" class="h">9</text><text x="22.044" y="129.759" class="i">22d57</text><text x="28.056" y="129.759" class="c">(no</text><text x="32.064" y="129.759" class="c">description</text><text x="44.088" y="129.759" class="c">set)</text><use xlink:href="#8" y="130.26"/><text y="134.101" class="c">$</text><text x="2.004" y="134.101" class="c">cat</text><text x="6.012" y="134.101" class="c">file</text><text y="136.272" class="c">third</text><text y="140.614" class="d">#</text><text x="2.004" y="140.614" class="d">Let&apos;s</text><text x="8.016" y="140.614" class="d">now</text><text x="12.024" y="140.614" class="d">instead</text><text x="20.04" y="140.614" class="d">make</text><text x="25.05" y="140.614" class="d">&quot;second&quot;</text><text x="34.068" y="140.614" class="d">and</text><text x="38.076" y="140.614" class="d">&quot;third&quot;</text><text y="142.785" class="d">#</text><text x="2.004" y="142.785" class="d">sibling</text><text x="10.02" y="142.785" class="d">and</text><text x="14.028" y="142.785" class="d">merge</text><text x="20.04" y="142.785" class="d">them:</text><text y="147.127" class="c">$</text><text x="2.004" y="147.127" class="c">jj</text><text x="5.01" y="147.127" class="c">rebase</text><text x="12.024" y="147.127" class="c">-s</text><text x="15.03" y="147.127" class="c">second</text><text x="22.044" y="147.127" class="c">-d</text><text x="25.05" y="147.127" class="c">first</text><use xlink:href="#7" y="147.628"/><text y="151.469" class="c">Working</text><text x="8.016" y="151.469" class="c">copy</text><text x="13.026" y="151.469" class="c">now</text><text x="17.034" y="151.469" class="c">at:</text><text x="21.042" y="151.469" class="h">a</text><text x="22.044" y="151.469" class="i">7877b</text><text x="28.056" y="151.469" class="c">(no</text><text x="32.064" y="151.469" class="c">description</text><text x="44.088" y="151.469" class="c">set)</text><use xlink:href="#8" y="151.97"/><text y="155.811" class="c">$</text><text x="2.004" y="155.811" class="c">jj</text><text x="5.01" y="155.811" class="c">merge</text><text x="11.022" y="155.811" class="c">second</text><text x="18.036" y="155.811" class="c">third</text><text x="24.048" y="155.811" class="c">-m</text><text x="27.054" y="155.811" class="c">merged</text><text y="157.982" class="c">Working</text><text x="8.016" y="157.982" class="c">copy</text><text x="13.026" y="157.982" class="c">now</text><text x="17.034" y="157.982" class="c">at:</text><text x="21.042" y="157.982" class="h">b4b</text><text x="24.048" y="157.982" class="i">9f5</text><text x="28.056" y="157.982" class="c">merged</text><use xlink:href="#8" y="158.483"/><use xlink:href="#1" y="160.654"/><text y="164.495" class="c">@</text><text x="5.01" y="164.495" class="j">ZU</text><text x="7.014" y="164.495" class="k">UVNK</text><text x="12.024" y="164.495" class="l">ilyagr@</text><text x="20.04" y="164.495" class="m">now</text><text x="24.048" y="164.495" class="n">b4b</text><text x="27.054" y="164.495" class="k">9f5</text><text y="166.666" class="c">├─╮</text><text x="5.01" y="166.666" class="o">(empty)</text><text x="13.026" y="166.666" class="p">merged</text><text y="168.837" class="c">●</text><text x="2.004" y="168.837" class="c">│</text><text x="5.01" y="168.837" class="q">V</text><text x="6.012" y="168.837" class="i">SYKRZ</text><text x="12.024" y="168.837" class="e">ilyagr@</text><text x="20.04" y="168.837" class="r">now</text><text x="24.048" y="168.837" class="s">second</text><text x="31.062" y="168.837" class="h">02</text><text x="33.066" y="168.837" class="i">6ce8</text><text y="171.008" class="c">│</text><text x="2.004" y="171.008" class="c">│</text><text x="5.01" y="171.008" class="c">second</text><text y="173.179" class="c">│</text><text x="2.004" y="173.179" class="c">●</text><text x="5.01" y="173.179" class="q">L</text><text x="6.012" y="173.179" class="i">LMTPY</text><text x="12.024" y="173.179" class="e">ilyagr@</text><text x="20.04" y="173.179" class="r">now</text><text x="24.048" y="173.179" class="s">third</text><text x="30.06" y="173.179" class="h">8</text><text x="31.062" y="173.179" class="i">fddae</text><text x="37.074" y="173.179" class="t">conflict</text><text y="175.35" class="c">├─╯</text><text x="5.01" y="175.35" class="c">third</text><text y="177.521" class="c">●</text><text x="3.006" y="177.521" class="q">N</text><text x="4.008" y="177.521" class="i">QZVOU</text><text x="10.02" y="177.521" class="e">ilyagr@</text><text x="18.036" y="177.521" class="r">now</text><text x="22.044" y="177.521" class="s">first</text><text x="28.056" y="177.521" class="h">bb</text><text x="30.06" y="177.521" class="i">d56d</text><use xlink:href="#4" y="178.022"/><text y="181.863" class="c">●</text><text x="3.006" y="181.863" class="q">ZZ</text><text x="5.01" y="181.863" class="i">ZZZZ</text><text x="10.02" y="181.863" class="e">@</text><text x="12.024" y="181.863" class="r">53</text><text x="15.03" y="181.863" class="r">years</text><text x="21.042" y="181.863" class="r">ago</text><text x="25.05" y="181.863" class="h">00</text><text x="27.054" y="181.863" class="i">0000</text><use xlink:href="#5" y="182.364"/><text y="188.376" class="d">#</text><text x="2.004" y="188.376" class="d">Again,</text><text x="9.018" y="188.376" class="d">because</text><text x="17.034" y="188.376" class="d">the</text><text x="21.042" y="188.376" class="d">merge</text><text x="27.054" y="188.376" class="d">commit</text><text x="34.068" y="188.376" class="d">has</text><text x="38.076" y="188.376" class="d">the</text><text y="190.547" class="d">#</text><text x="2.004" y="190.547" class="d">changes</text><text x="10.02" y="190.547" class="d">from</text><text x="15.03" y="190.547" class="d">all</text><text x="19.038" y="190.547" class="d">three</text><text x="25.05" y="190.547" class="d">commits,</text><text x="34.068" y="190.547" class="d">it</text><text x="37.074" y="190.547" class="d">has</text><text x="41.082" y="190.547" class="d">no</text><text y="192.718" class="d">#</text><text x="2.004" y="192.718" class="d">conflict.</text></svg></svg></g></svg></svg>